<svg width="412" height="86" viewBox="0 0 412 86" fill="none" xmlns="http://www.w3.org/2000/svg">
<path d="M49.2629 19.5046C51.3921 26.9691 52.5322 34.8512 52.5322 43C52.5322 49.8501 51.7265 56.5118 50.2049 62.8953C50.176 63.0165 50.1469 63.1376 50.1175 63.2586C49.834 64.4252 49.5265 65.5823 49.1957 66.7296C50.5481 66.7015 51.8725 66.5595 53.1598 66.3128C54.0139 66.1491 54.8515 65.9393 55.6702 65.6861C65.2961 62.709 72.2899 53.7303 72.2899 43.1163C72.2899 43.0775 72.2898 43.0388 72.2896 43C72.2279 30.1986 61.9929 19.8046 49.2629 19.5046Z" fill="#16202B"/>
<path d="M49.1957 66.7296C48.8099 68.0675 48.3923 69.3919 47.9438 70.702C49.1331 67.5897 50.4428 67.0025 53.1598 66.3128C51.8725 66.5595 50.5481 66.7015 49.1957 66.7296Z" fill="#16202B"/>
<path d="M48.6969 66.7348C48.8636 66.7348 49.0299 66.733 49.1957 66.7296C49.5265 65.5823 49.834 64.4252 50.1175 63.2586C49.0861 67.0623 45.3316 66.7035 41.7236 65.6861C43.9275 66.3678 46.2693 66.7348 48.6969 66.7348Z" fill="#16202B"/>
<path fill-rule="evenodd" clip-rule="evenodd" d="M0 43C0 57.7253 7.38554 70.7239 18.6507 78.4858C36.8558 89.9806 43.9044 81.1828 47.0364 73.2218C47.2226 72.7293 47.4044 72.2345 47.5817 71.7377C47.7046 71.3935 47.8253 71.0482 47.9438 70.702C48.3923 69.3919 48.8099 68.0675 49.1957 66.7296C49.0299 66.733 48.8636 66.7348 48.6969 66.7348C46.2693 66.7348 43.9275 66.3678 41.7236 65.6861C32.0977 62.709 25.1039 53.7303 25.1039 43.1163C25.1039 30.0722 35.6668 19.4979 48.6969 19.4979C48.8861 19.4979 49.0747 19.5001 49.2629 19.5046C48.6939 17.5098 48.0542 15.5448 47.3468 13.6126L47.0364 12.7782C43.9044 4.81716 36.8558 -3.98063 18.6507 7.5142C7.38554 15.2761 0 28.2746 0 43Z" fill="#16202B"/>
<path d="M49.2629 19.5046C48.8771 18.1667 48.4595 16.8423 48.011 15.5323C49.2003 18.6446 50.5099 19.2318 53.227 19.9215C51.9397 19.6748 50.6153 19.5326 49.2629 19.5046Z" fill="#16202B"/>
<path d="M48.764 19.4995C48.9307 19.4995 49.097 19.5011 49.2629 19.5046C49.5937 20.6518 49.9011 21.8091 50.1846 22.9756C49.1532 19.172 45.3987 19.5308 41.7907 20.5481C43.9946 19.8665 46.3365 19.4995 48.764 19.4995Z" fill="#16202B"/>
<path d="M137.201 14.8902H148.209V70.7279H139.833L115.903 36.5872V70.7279H104.895V14.8902H113.27L137.201 48.9512V14.8902Z" fill="#16202B"/>
<path d="M180.343 23.6647C174.706 23.2393 171.888 25.4994 171.888 30.445V30.8439H180.343V40.7351H171.888V70.7279H161.598V40.7351H155.855V30.8439H161.598V30.445C161.598 24.8081 163.167 20.5272 166.304 17.6024C169.442 14.6775 174.121 13.4012 180.343 13.7735V23.6647Z" fill="#16202B"/>
<path d="M209.917 40.7351H200.904V57.3269C200.904 58.7095 201.249 59.7199 201.941 60.3581C202.632 60.9962 203.642 61.3685 204.972 61.4748C206.301 61.528 207.95 61.5014 209.917 61.3951V70.7279C202.845 71.5256 197.846 70.8609 194.921 68.7337C192.049 66.6066 190.613 62.8043 190.613 57.3269V40.7351H183.674V30.8439H190.613V22.7873L200.904 19.6763V30.8439H209.917V40.7351Z" fill="#16202B"/>
<path d="M226.606 42.1709C226.606 43.2345 227.297 44.112 228.68 44.8033C230.116 45.4414 231.844 46.0264 233.865 46.5582C235.885 47.0368 237.906 47.6749 239.927 48.4726C241.948 49.2171 243.65 50.4934 245.032 52.3015C246.468 54.1096 247.186 56.3697 247.186 59.0818C247.186 63.1766 245.644 66.3407 242.559 68.5742C239.528 70.7545 235.726 71.8447 231.153 71.8447C222.963 71.8447 217.379 68.6806 214.401 62.3523L223.335 57.3269C224.505 60.7835 227.111 62.5118 231.153 62.5118C234.822 62.5118 236.657 61.3685 236.657 59.0818C236.657 58.0182 235.939 57.1674 234.503 56.5292C233.12 55.8379 231.418 55.2263 229.398 54.6945C227.377 54.1628 225.356 53.498 223.335 52.7003C221.314 51.9027 219.586 50.653 218.15 48.9512C216.768 47.1963 216.076 45.016 216.076 42.4102C216.076 38.475 217.512 35.3907 220.384 33.1571C223.309 30.8705 226.925 29.7271 231.232 29.7271C234.476 29.7271 237.428 30.4716 240.087 31.9606C242.745 33.3965 244.846 35.4704 246.388 38.1825L237.614 42.9686C236.337 40.2565 234.21 38.9005 231.232 38.9005C229.903 38.9005 228.786 39.1929 227.882 39.7779C227.031 40.3629 226.606 41.1605 226.606 42.1709Z" fill="#16202B"/>
<path d="M273.041 71.8447C267.032 71.8447 262.006 69.8239 257.965 65.7823C253.976 61.7407 251.982 56.7419 251.982 50.7859C251.982 44.8299 253.976 39.8311 257.965 35.7895C262.006 31.7479 267.032 29.7271 273.041 29.7271C276.923 29.7271 280.459 30.6577 283.65 32.519C286.841 34.3803 289.26 36.8797 290.909 40.0172L282.055 45.2021C281.257 43.5536 280.034 42.2507 278.385 41.2935C276.79 40.3363 274.982 39.8577 272.961 39.8577C269.877 39.8577 267.324 40.8947 265.303 42.9686C263.282 44.9894 262.272 47.5952 262.272 50.7859C262.272 53.9234 263.282 56.5292 265.303 58.6032C267.324 60.624 269.877 61.6344 272.961 61.6344C275.035 61.6344 276.87 61.1823 278.465 60.2783C280.114 59.3211 281.337 58.0182 282.134 56.3697L291.068 61.4748C289.313 64.6124 286.841 67.1384 283.65 69.0528C280.459 70.9141 276.923 71.8447 273.041 71.8447Z" fill="#16202B"/>
<path d="M330.666 65.7823C326.572 69.8239 321.573 71.8447 315.67 71.8447C309.767 71.8447 304.768 69.8239 300.674 65.7823C296.632 61.6875 294.611 56.6887 294.611 50.7859C294.611 44.8831 296.632 39.9108 300.674 35.8693C304.768 31.7745 309.767 29.7271 315.67 29.7271C321.573 29.7271 326.572 31.7745 330.666 35.8693C334.761 39.9108 336.809 44.8831 336.809 50.7859C336.809 56.6887 334.761 61.6875 330.666 65.7823ZM307.932 58.6829C310.006 60.7569 312.586 61.7939 315.67 61.7939C318.754 61.7939 321.334 60.7569 323.407 58.6829C325.481 56.609 326.518 53.9766 326.518 50.7859C326.518 47.5952 325.481 44.9628 323.407 42.8889C321.334 40.8149 318.754 39.7779 315.67 39.7779C312.586 39.7779 310.006 40.8149 307.932 42.8889C305.912 44.9628 304.901 47.5952 304.901 50.7859C304.901 53.9766 305.912 56.609 307.932 58.6829Z" fill="#16202B"/>
<path d="M355.135 37.7039C356.092 35.1514 357.661 33.2369 359.842 31.9606C362.075 30.6843 364.548 30.0462 367.26 30.0462V41.5328C364.122 41.1605 361.304 41.7987 358.805 43.4472C356.358 45.0958 355.135 47.8345 355.135 51.6634V70.7279H344.845V30.8439H355.135V37.7039Z" fill="#16202B"/>
<path d="M381.29 55.0136C382.673 60.0124 386.422 62.5118 392.538 62.5118C396.473 62.5118 399.451 61.1823 401.472 58.5234L409.768 63.3095C405.832 68.9996 400.036 71.8447 392.378 71.8447C385.784 71.8447 380.493 69.8505 376.504 65.8621C372.516 61.8737 370.522 56.8483 370.522 50.7859C370.522 44.7767 372.489 39.7779 376.425 35.7895C380.36 31.7479 385.412 29.7271 391.581 29.7271C397.43 29.7271 402.243 31.7479 406.019 35.7895C409.847 39.8311 411.762 44.8299 411.762 50.7859C411.762 52.1154 411.629 53.5246 411.363 55.0136H381.29ZM381.131 47.0368H401.472C400.887 44.3247 399.664 42.3039 397.802 40.9744C395.994 39.645 393.92 38.9802 391.581 38.9802C388.815 38.9802 386.529 39.6981 384.72 41.134C382.912 42.5166 381.716 44.4842 381.131 47.0368Z" fill="#16202B"/>
</svg>
