<svg width="30" height="30" viewBox="0 0 30 30" fill="none" xmlns="http://www.w3.org/2000/svg">
<g clip-path="url(#clip0_2274_488)">
<path d="M6 12.2903C6 7.15942 10.0078 3 14.9516 3C19.8955 3 23.9032 7.15942 23.9032 12.2903V25.5883C23.9032 26.368 23.2943 27 22.5429 27H7.3603C6.60903 27 6 26.368 6 25.5883V12.2903Z" fill="url(#paint0_linear_2274_488)"/>
<path fill-rule="evenodd" clip-rule="evenodd" d="M22.8396 25.8468V12.3174C22.8396 7.78293 19.3081 4.10702 14.9516 4.10702C10.5952 4.10702 7.06356 7.78293 7.06356 12.3174V25.8468C7.06356 25.8724 7.0834 25.893 7.10787 25.893H22.7954C22.8199 25.893 22.8396 25.8724 22.8396 25.8468ZM14.9516 3C10.0078 3 6 7.17154 6 12.3174V25.8468C6 26.4837 6.49601 27 7.10787 27H22.7954C23.4073 27 23.9032 26.4837 23.9032 25.8468V12.3174C23.9032 7.17154 19.8955 3 14.9516 3Z" fill="black"/>
</g>
<defs>
<linearGradient id="paint0_linear_2274_488" x1="8.30438" y1="4.38377" x2="24.8141" y2="29.6181" gradientUnits="userSpaceOnUse">
<stop offset="0.265625" stop-color="white"/>
<stop offset="0.734375"/>
</linearGradient>
<clipPath id="clip0_2274_488">
<rect width="18" height="24" fill="white" transform="translate(6 3)"/>
</clipPath>
</defs>
</svg>
