<svg width="25" height="25" viewBox="0 0 25 25" xmlns="http://www.w3.org/2000/svg">
<g clip-path="url(#clip0_5_78)">
<path d="M20.7989 5.44038C23.5061 9.14206 24.8431 13.3175 24.3433 18.1243C24.3412 18.1446 24.3299 18.1633 24.3119 18.1756C22.2618 19.5755 20.2755 20.4252 18.317 20.9886C18.3018 20.9929 18.2855 20.9927 18.2704 20.9879C18.2553 20.9832 18.2421 20.9741 18.2328 20.9621C17.7804 20.3767 17.3693 19.7594 17.0091 19.1113C16.9884 19.0731 17.0073 19.0271 17.0499 19.0121C17.7028 18.7833 18.3236 18.5091 18.9208 18.1845C18.9678 18.1588 18.9708 18.0961 18.9274 18.066C18.8006 17.9785 18.6751 17.8866 18.5549 17.7946C18.5325 17.7776 18.5022 17.7743 18.4767 17.7857C14.5997 19.4507 10.3526 19.4507 6.42978 17.7857C6.40431 17.7751 6.37405 17.7787 6.35217 17.7955C6.23232 17.8874 6.10647 17.9785 5.98092 18.066C5.93748 18.0961 5.94107 18.1588 5.98841 18.1845C6.58559 18.503 7.20644 18.7833 7.85845 19.0132C7.9007 19.0282 7.92078 19.0731 7.8998 19.1113C7.54743 19.7603 7.13633 20.3775 6.67548 20.963C6.65541 20.9866 6.62245 20.9975 6.59129 20.9886C4.64214 20.4252 2.65584 19.5755 0.605717 18.1756C0.588638 18.1633 0.576353 18.1438 0.574555 18.1234C0.15686 13.9656 1.00813 9.75566 4.11568 5.43955C4.12317 5.42812 4.13455 5.41921 4.14774 5.41391C5.67679 4.7613 7.31491 4.28117 9.02704 4.00697C9.05821 4.00251 9.08937 4.01589 9.10555 4.04153C9.31709 4.38985 9.5589 4.83653 9.7225 5.20157C11.5272 4.94521 13.3601 4.94521 15.2026 5.20157C15.3662 4.84434 15.5996 4.38985 15.8102 4.04153C15.8177 4.02881 15.8294 4.01862 15.8435 4.01241C15.8576 4.00621 15.8734 4.0043 15.8888 4.00697C17.6018 4.28201 19.2399 4.76213 20.7678 5.41391C20.7812 5.41921 20.7923 5.42812 20.7989 5.44038ZM10.64 13.3459C10.6589 12.1167 9.69524 11.0996 8.4856 11.0996C7.28585 11.0996 6.3315 12.1078 6.3315 13.3459C6.3315 14.5837 7.30472 15.5918 8.4856 15.5918C9.68565 15.5918 10.64 14.5837 10.64 13.3459ZM18.605 13.3459C18.6238 12.1167 17.6602 11.0996 16.4509 11.0996C15.2508 11.0996 14.2965 12.1078 14.2965 13.3459C14.2965 14.5837 15.2697 15.5918 16.4509 15.5918C17.6602 15.5918 18.605 14.5837 18.605 13.3459Z" />
</g>
<defs>
<clipPath id="clip0_5_78">
<rect width="25" height="17" fill="white" transform="translate(0 4)"/>
</clipPath>
</defs>
</svg>
