<svg xmlns="http://www.w3.org/2000/svg" version="1.1" xmlns:xlink="http://www.w3.org/1999/xlink" xmlns:svgjs="http://svgjs.com/svgjs" width="70" height="70"><svg width="70" height="70" viewBox="0 0 70 70" fill="none" xmlns="http://www.w3.org/2000/svg">
<path d="M46.2063 15.8758C47.9441 21.9516 48.8746 28.3673 48.8746 35C48.8746 40.5756 48.2171 45.9979 46.9752 51.1939C46.9516 51.2925 46.9278 51.3911 46.9038 51.4896C46.6724 52.4391 46.4215 53.381 46.1515 54.3148C47.2553 54.2919 48.3362 54.1764 49.3869 53.9755C50.0839 53.8423 50.7676 53.6715 51.4357 53.4655C59.292 51.0422 65 43.734 65 35.0947C65 35.0631 64.9999 35.0315 64.9998 35C64.9494 24.5803 56.596 16.12 46.2063 15.8758Z" fill="#16202B"></path>
<path d="M46.1515 54.3148C45.8366 55.4038 45.4958 56.4818 45.1298 57.5481C46.1004 55.0149 47.1693 54.5369 49.3869 53.9755C48.3362 54.1764 47.2553 54.2919 46.1515 54.3148Z" fill="#16202B"></path>
<path d="M45.7444 54.319C45.8804 54.319 46.0161 54.3176 46.1515 54.3148C46.4215 53.381 46.6724 52.4391 46.9038 51.4896C46.062 54.5856 42.9977 54.2935 40.053 53.4655C41.8518 54.0203 43.7631 54.319 45.7444 54.319Z" fill="#16202B"></path>
<path fill-rule="evenodd" clip-rule="evenodd" d="M6 35C6 46.9858 12.0278 57.5659 21.2219 63.8838C36.0802 73.2401 41.8329 66.0791 44.3891 59.5992C44.5411 59.1982 44.6895 58.7956 44.8342 58.3911C44.9345 58.111 45.033 57.8299 45.1298 57.5481C45.4958 56.4818 45.8366 55.4038 46.1515 54.3148C46.0161 54.3176 45.8804 54.319 45.7444 54.319C43.7631 54.319 41.8518 54.0203 40.053 53.4655C32.1968 51.0422 26.4887 43.734 26.4887 35.0947C26.4887 24.4774 35.1098 15.8704 45.7444 15.8704C45.8988 15.8704 46.0528 15.8722 46.2063 15.8758C45.7419 14.2522 45.2199 12.6528 44.6425 11.08L44.3891 10.4008C41.8329 3.92095 36.0802 -3.24005 21.2219 6.11621C12.0278 12.4341 6 23.0142 6 35Z" fill="#16202B"></path>
<path d="M46.2063 15.8758C45.8915 14.7868 45.5506 13.7089 45.1846 12.6426C46.1552 15.1758 47.2241 15.6538 49.4417 16.2152C48.3911 16.0143 47.3101 15.8987 46.2063 15.8758Z" fill="#16202B"></path>
<path d="M45.7992 15.8717C45.9352 15.8717 46.071 15.873 46.2063 15.8758C46.4763 16.8096 46.7272 17.7516 46.9586 18.7011C46.1168 15.6051 43.0526 15.8972 40.1079 16.7252C41.9066 16.1704 43.818 15.8717 45.7992 15.8717Z" fill="#16202B"></path>
</svg><style>@media (prefers-color-scheme: light) { :root { filter: none; } }
</style></svg>