<svg width="25" height="25" viewBox="0 0 25 25" fill="none" xmlns="http://www.w3.org/2000/svg">
<path d="M7.05087 5.37109C10.945 5.37109 14.1015 8.54966 14.1015 12.4704C14.1015 16.391 10.9447 19.5694 7.05087 19.5694C3.15701 19.5694 0 16.391 0 12.4704C0 8.54966 3.15677 5.37109 7.05087 5.37109ZM18.3106 5.78695C20.2577 5.78695 21.836 8.77891 21.836 12.4704H21.8363C21.8363 16.1608 20.2579 19.1538 18.3108 19.1538C16.3638 19.1538 14.7854 16.1608 14.7854 12.4704C14.7854 8.77987 16.3636 5.78695 18.3106 5.78695ZM23.7601 6.48308C24.4447 6.48308 25 9.16363 25 12.4704C25 15.7761 24.445 18.4576 23.7601 18.4576C23.0752 18.4576 22.5204 15.7768 22.5204 12.4704C22.5204 9.16387 23.0755 6.48308 23.7601 6.48308Z" fill="#A2AEB7"/>
</svg>
