<svg width="427" height="89" viewBox="0 0 427 89" fill="none" xmlns="http://www.w3.org/2000/svg">
<path d="M50.9813 20.185C53.1848 27.9098 54.3647 36.067 54.3647 44.5C54.3647 51.589 53.5309 58.4831 51.9562 65.0893C51.9263 65.2148 51.8962 65.3401 51.8657 65.4653C51.5724 66.6726 51.2542 67.8701 50.9118 69.0574C52.3114 69.0283 53.6821 68.8814 55.0142 68.626C55.8981 68.4566 56.7649 68.2395 57.6121 67.9775C67.5738 64.8966 74.8116 55.6046 74.8116 44.6204C74.8116 44.5802 74.8115 44.5401 74.8113 44.5C74.7475 31.252 64.1554 20.4955 50.9813 20.185Z" fill="white"/>
<path d="M50.9118 69.0574C50.5126 70.442 50.0804 71.8126 49.6163 73.1683C50.8471 69.9475 52.2024 69.3398 55.0142 68.626C53.6821 68.8814 52.3114 69.0283 50.9118 69.0574Z" fill="white"/>
<path d="M50.3956 69.0627C50.5681 69.0627 50.7402 69.0609 50.9118 69.0574C51.2542 67.8701 51.5724 66.6726 51.8657 65.4653C50.7984 69.4017 46.9129 69.0303 43.179 67.9775C45.4598 68.6829 47.8834 69.0627 50.3956 69.0627Z" fill="white"/>
<path fill-rule="evenodd" clip-rule="evenodd" d="M0 44.5C0 59.739 7.64318 73.191 19.3013 81.2237C38.1415 93.1195 45.4359 84.0148 48.6772 75.7761C48.8699 75.2663 49.058 74.7543 49.2415 74.2402C49.3687 73.8839 49.4936 73.5266 49.6163 73.1683C50.0804 71.8126 50.5126 70.442 50.9118 69.0574C50.7402 69.0609 50.5681 69.0627 50.3956 69.0627C47.8834 69.0627 45.4598 68.6829 43.179 67.9775C33.2173 64.8966 25.9796 55.6046 25.9796 44.6204C25.9796 31.1213 36.911 20.1781 50.3956 20.1781C50.5914 20.1781 50.7866 20.1804 50.9813 20.185C50.3925 18.1206 49.7305 16.0871 48.9985 14.0875L48.6772 13.2239C45.4359 4.9852 38.1415 -4.11949 19.3013 7.77633C7.64317 15.809 0 29.261 0 44.5Z" fill="white"/>
<path d="M50.9813 20.185C50.5821 18.8004 50.1499 17.4299 49.6858 16.0741C50.9166 19.295 52.2719 19.9026 55.0837 20.6164C53.7516 20.3611 52.3809 20.214 50.9813 20.185Z" fill="white"/>
<path d="M50.4651 20.1797C50.6376 20.1797 50.8097 20.1814 50.9813 20.185C51.3237 21.3722 51.6419 22.5699 51.9353 23.7771C50.8679 19.8408 46.9824 20.2121 43.2485 21.2649C45.5293 20.5595 47.9529 20.1797 50.4651 20.1797Z" fill="white"/>
<path d="M141.987 15.4092H153.379V73.1947H144.711L119.946 37.863V73.1947H108.554V15.4092H117.221L141.987 50.6583V15.4092Z" fill="white"/>
<path d="M186.634 24.4898C180.801 24.0495 177.884 26.3884 177.884 31.5066V31.9193H186.634V42.1556H177.884V73.1947H167.235V42.1556H161.291V31.9193H167.235V31.5066C167.235 25.673 168.858 21.2428 172.105 18.2159C175.352 15.1891 180.195 13.8682 186.634 14.2535V24.4898Z" fill="white"/>
<path d="M217.24 42.1556H207.912V59.3262C207.912 60.7571 208.27 61.8027 208.985 62.4631C209.7 63.1235 210.746 63.5087 212.122 63.6188C213.498 63.6738 215.204 63.6463 217.24 63.5363V73.1947C209.921 74.0202 204.747 73.3323 201.721 71.1309C198.749 68.9296 197.263 64.9947 197.263 59.3262V42.1556H190.081V31.9193H197.263V23.5817L207.912 20.3622V31.9193H217.24V42.1556Z" fill="white"/>
<path d="M234.511 43.6415C234.511 44.7422 235.226 45.6503 236.657 46.3657C238.143 47.0261 239.931 47.6315 242.023 48.1818C244.114 48.6771 246.205 49.3375 248.297 50.163C250.388 50.9335 252.149 52.2543 253.58 54.1255C255.066 55.9966 255.809 58.3356 255.809 61.1423C255.809 65.3799 254.213 68.6544 251.021 70.9658C247.884 73.2222 243.949 74.3504 239.216 74.3504C230.741 74.3504 224.962 71.0759 221.88 64.5269L231.126 59.3262C232.337 62.9034 235.033 64.692 239.216 64.692C243.013 64.692 244.912 63.5087 244.912 61.1423C244.912 60.0416 244.169 59.1611 242.683 58.5007C241.252 57.7852 239.491 57.1523 237.4 56.602C235.309 56.0517 233.217 55.3637 231.126 54.5382C229.035 53.7127 227.246 52.4194 225.76 50.6583C224.329 48.8422 223.614 46.5858 223.614 43.8892C223.614 39.8167 225.1 36.6247 228.072 34.3133C231.098 31.9468 234.841 30.7636 239.299 30.7636C242.656 30.7636 245.71 31.5341 248.462 33.075C251.213 34.561 253.387 36.7073 254.983 39.514L245.903 44.467C244.582 41.6603 242.38 40.257 239.299 40.257C237.923 40.257 236.767 40.5596 235.831 41.165C234.951 41.7704 234.511 42.5959 234.511 43.6415Z" fill="white"/>
<path d="M282.565 74.3504C276.347 74.3504 271.146 72.2591 266.963 68.0766C262.836 63.894 260.772 58.7208 260.772 52.557C260.772 46.3932 262.836 41.22 266.963 37.0375C271.146 32.8549 276.347 30.7636 282.565 30.7636C286.583 30.7636 290.243 31.7267 293.545 33.6529C296.847 35.5791 299.351 38.1657 301.057 41.4127L291.894 46.7785C291.068 45.0724 289.802 43.7241 288.096 42.7335C286.445 41.7429 284.574 41.2476 282.483 41.2476C279.291 41.2476 276.649 42.3207 274.558 44.467C272.467 46.5583 271.421 49.255 271.421 52.557C271.421 55.804 272.467 58.5007 274.558 60.647C276.649 62.7383 279.291 63.7839 282.483 63.7839C284.629 63.7839 286.528 63.3161 288.179 62.3806C289.885 61.3899 291.151 60.0416 291.976 58.3356L301.222 63.6188C299.406 66.8658 296.847 69.4799 293.545 71.4611C290.243 73.3873 286.583 74.3504 282.565 74.3504Z" fill="white"/>
<path d="M342.201 68.0766C337.964 72.2591 332.79 74.3504 326.682 74.3504C320.573 74.3504 315.4 72.2591 311.162 68.0766C306.98 63.8389 304.888 58.6658 304.888 52.557C304.888 46.4483 306.98 41.3026 311.162 37.12C315.4 32.8824 320.573 30.7636 326.682 30.7636C332.79 30.7636 337.964 32.8824 342.201 37.12C346.439 41.3026 348.558 46.4483 348.558 52.557C348.558 58.6658 346.439 63.8389 342.201 68.0766ZM318.674 60.7295C320.821 62.8759 323.49 63.949 326.682 63.949C329.874 63.949 332.543 62.8759 334.689 60.7295C336.835 58.5832 337.909 55.859 337.909 52.557C337.909 49.255 336.835 46.5308 334.689 44.3845C332.543 42.2382 329.874 41.165 326.682 41.165C323.49 41.165 320.821 42.2382 318.674 44.3845C316.583 46.5308 315.537 49.255 315.537 52.557C315.537 55.859 316.583 58.5832 318.674 60.7295Z" fill="white"/>
<path d="M367.524 39.0187C368.514 36.3771 370.138 34.3959 372.394 33.075C374.706 31.7542 377.265 31.0938 380.071 31.0938V42.9811C376.824 42.5959 373.908 43.2563 371.321 44.9623C368.789 46.6684 367.524 49.5026 367.524 53.4651V73.1947H356.875V31.9193H367.524V39.0187Z" fill="white"/>
<path d="M394.591 56.9322C396.022 62.1054 399.902 64.692 406.231 64.692C410.303 64.692 413.385 63.3161 415.477 60.5644L424.062 65.5175C419.989 71.4061 413.991 74.3504 406.066 74.3504C399.242 74.3504 393.766 72.2866 389.638 68.1591C385.511 64.0316 383.447 58.8309 383.447 52.557C383.447 46.3382 385.483 41.165 389.556 37.0375C393.628 32.8549 398.856 30.7636 405.24 30.7636C411.294 30.7636 416.275 32.8549 420.182 37.0375C424.144 41.22 426.126 46.3932 426.126 52.557C426.126 53.9329 425.988 55.3913 425.713 56.9322H394.591ZM394.426 48.6771H415.477C414.871 45.8704 413.605 43.7791 411.679 42.4033C409.808 41.0274 407.662 40.3395 405.24 40.3395C402.379 40.3395 400.012 41.0825 398.141 42.5684C396.27 43.9993 395.032 46.0355 394.426 48.6771Z" fill="white"/>
</svg>
