<svg width="76" height="60" viewBox="0 0 76 60" fill="none" xmlns="http://www.w3.org/2000/svg">
<path d="M55.3571 4.43155C55.5359 3.92921 56.2717 4.01817 56.3256 4.54864L57.7183 18.256C57.7378 18.4481 57.8662 18.6118 58.0481 18.6766L71.0287 23.2956C71.5311 23.4744 71.4421 24.2102 70.9116 24.2641L57.2043 25.6568C57.0122 25.6764 56.8485 25.8047 56.7837 25.9867L52.1646 38.9673C51.9859 39.4696 51.25 39.3807 51.1961 38.8502L49.8034 25.1428C49.7839 24.9507 49.6555 24.787 49.4736 24.7223L36.493 20.1032C35.9907 19.9244 36.0796 19.1886 36.6101 19.1347L50.3175 17.742C50.5096 17.7225 50.6733 17.5941 50.738 17.4122L55.3571 4.43155Z" fill="#FFE55B"/>
<path d="M16.3915 27.6733C16.4526 27.1437 17.1896 27.0647 17.3615 27.5694L20.8883 37.9217C20.9505 38.1045 21.1125 38.2351 21.3043 38.2572L32.1689 39.5098C32.6986 39.5709 32.7776 40.3078 32.2729 40.4798L21.9205 44.0065C21.7378 44.0688 21.6072 44.2308 21.5851 44.4226L20.3325 55.2872C20.2714 55.8169 19.5344 55.8959 19.3625 55.3911L15.8357 45.0388C15.7734 44.856 15.6115 44.7255 15.4197 44.7033L4.55508 43.4507C4.02539 43.3897 3.9464 42.6527 4.45111 42.4807L14.8034 38.954C14.9862 38.8917 15.1168 38.7298 15.1389 38.538L16.3915 27.6733Z" fill="#C7E1F3"/>
</svg>
