<svg width="25" height="25" viewBox="0 0 25 25" xmlns="http://www.w3.org/2000/svg">
<g clip-path="url(#clip0_5_81)">
<path d="M23.6754 5.34133C22.8446 5.71933 21.9498 5.97133 21.0139 6.088C21.9726 5.5 22.703 4.57133 23.05 3.47C22.1552 4.00666 21.1646 4.40333 20.11 4.61333C19.2654 3.694 18.0602 3.12 16.7272 3.12C14.1661 3.12 12.0935 5.23866 12.0935 7.85666C12.0935 8.23 12.1346 8.58933 12.2122 8.93466C8.3637 8.73866 4.94892 6.85333 2.66174 3.988C2.26457 4.688 2.03631 5.5 2.03631 6.368C2.03631 8.01066 2.85348 9.462 4.09522 10.3113C3.3374 10.288 2.62066 10.0733 1.99522 9.71866C1.99522 9.73733 1.99522 9.756 1.99522 9.77933C1.99522 12.0753 3.59305 13.9887 5.71131 14.4227C5.32326 14.53 4.9124 14.5907 4.4924 14.5907C4.19566 14.5907 3.90348 14.5627 3.62044 14.5067C4.20935 16.3873 5.92131 17.7593 7.94826 17.7967C6.36413 19.066 4.36457 19.822 2.19609 19.822C1.82174 19.822 1.45196 19.7987 1.09131 19.7567C3.14109 21.1007 5.57892 21.8847 8.19479 21.8847C16.718 21.8847 21.3791 14.67 21.3791 8.40733C21.3791 8.202 21.3746 7.99666 21.3654 7.796C22.2694 7.124 23.0546 6.28866 23.6754 5.34133Z"/>
</g>
<defs>
<clipPath id="clip0_5_81">
<rect width="22.8261" height="21" fill="white" transform="translate(1 2)"/>
</clipPath>
</defs>
</svg>
